<?xml version="1.0" standalone="no"?>
<!DOCTYPE svg PUBLIC "-//W3C//DTD SVG 20010904//EN"
 "http://www.w3.org/TR/2001/REC-SVG-20010904/DTD/svg10.dtd">
<svg version="1.0" xmlns="http://www.w3.org/2000/svg"
 width="800.000000pt" height="800.000000pt" viewBox="0 0 800.000000 800.000000"
 preserveAspectRatio="xMidYMid meet">
<metadata>
Created by potrace 1.11, written by Peter Selinger 2001-2013
</metadata>
<g transform="translate(0.000000,800.000000) scale(0.100000,-0.100000)"
fill="#000000" stroke="none">
<path d="M7455 7231 c-39 -12 -70 -37 -156 -121 -59 -58 -151 -154 -204 -215
-158 -178 -208 -224 -241 -220 -135 15 -186 15 -259 2 -186 -34 -181 -36 -557
324 -97 94 -105 101 -150 122 -47 22 -62 22 -93 -5 -32 -28 -52 -109 -48 -192
2 -33 19 -111 38 -175 34 -112 54 -188 110 -434 16 -70 41 -146 62 -188 l35
-71 2 -157 c1 -201 -7 -222 -137 -342 -49 -46 -147 -140 -216 -209 -91 -91
-148 -138 -206 -172 -149 -87 -348 -169 -459 -189 -177 -31 -876 -313 -894
-361 -2 -4 -8 -8 -13 -8 -11 0 -90 -55 -184 -129 -96 -76 -287 -267 -374 -376
-86 -106 -223 -310 -278 -411 l-39 -72 -199 78 c-110 43 -211 83 -225 88 -14
6 -277 110 -585 230 -308 120 -798 313 -1090 427 -291 114 -538 210 -548 213
-16 4 -17 -13 -17 -265 l0 -269 392 -148 c216 -82 467 -177 558 -211 228 -87
404 -153 1005 -380 286 -108 524 -200 528 -204 4 -4 3 -30 -4 -57 -6 -27 -12
-56 -14 -64 -6 -31 -19 -126 -19 -145 0 -11 -5 -23 -10 -27 -10 -6 -148 -59
-291 -113 -104 -38 -597 -226 -660 -250 -193 -75 -1174 -445 -1180 -445 -3 0
-4 8 -1 18 3 9 7 28 10 42 36 202 123 374 242 483 44 40 110 87 122 87 4 0 20
7 35 15 33 17 120 32 223 39 92 6 151 24 174 53 26 33 14 59 -43 103 -119 91
-303 93 -491 7 -328 -152 -560 -467 -620 -843 -26 -165 -14 -388 29 -513 8
-25 15 -68 15 -96 0 -49 2 -52 22 -49 19 3 31 -9 68 -66 85 -134 219 -247 395
-335 98 -49 277 -114 352 -129 16 -3 48 -10 73 -16 67 -14 226 -38 305 -45 39
-4 81 -8 95 -10 96 -15 650 -22 810 -11 170 12 218 17 270 26 30 5 73 12 95
15 59 8 193 41 250 61 36 12 75 16 135 14 150 -5 224 -4 285 3 96 12 138 17
170 21 17 3 57 8 90 11 33 4 65 8 70 9 6 0 12 -51 15 -129 l5 -130 1702 -1
1702 -2 0 154 -1 154 -1201 1 c-1025 0 -1196 2 -1159 14 160 50 204 208 84
304 l-40 32 35 37 c48 52 146 200 182 274 100 211 145 450 145 781 0 117 1
125 13 95 29 -69 87 -313 109 -458 3 -19 7 -46 10 -60 2 -14 6 -45 10 -70 26
-209 191 -677 264 -750 46 -46 159 -100 240 -115 14 -3 36 -7 50 -10 59 -14
257 -17 310 -6 103 22 165 89 162 176 -1 22 -10 51 -21 65 -17 23 -138 118
-152 119 -4 1 -36 18 -70 40 -35 21 -73 41 -85 45 -32 10 -62 97 -90 263 -4
21 -7 250 -8 508 l-2 470 42 65 c23 36 88 144 144 240 114 194 137 225 228
320 182 187 408 560 437 720 23 125 25 192 11 378 -4 48 -7 146 -7 217 -1 118
2 135 25 185 34 74 90 293 120 470 25 145 57 265 116 435 18 50 43 139 56 199
18 84 31 118 58 155 31 43 37 62 52 166 3 22 25 121 49 220 24 99 47 196 51
215 4 19 9 42 11 50 2 8 6 69 10 135 7 138 -9 214 -52 257 -33 34 -62 38 -120
19z m-4449 -5118 c-2 -153 -6 -289 -9 -303 -3 -14 -8 -43 -11 -65 -25 -184
-38 -260 -50 -284 -43 -82 -258 -207 -392 -228 -71 -10 -852 -1 -924 11 -14 2
-50 7 -80 11 -220 24 -438 115 -553 230 -56 56 -79 92 -64 98 15 6 503 197
1322 517 341 134 645 253 675 266 97 40 90 62 86 -253z"/>
</g>
</svg>
